<svg width="117" height="12" viewBox="0 0 117 12" fill="none" xmlns="http://www.w3.org/2000/svg">
<path d="M6.17578 6.91211H7.17383C7.17383 7.6276 6.96875 8.16536 6.55859 8.52539C6.15299 8.88086 5.60156 9.05859 4.9043 9.05859C4.42122 9.05859 4.00195 8.94694 3.64648 8.72363C3.29557 8.50033 3.02214 8.19043 2.82617 7.79395C2.63477 7.39746 2.53906 6.93717 2.53906 6.41309V5.62695C2.53906 5.10286 2.63477 4.64258 2.82617 4.24609C3.02214 3.84961 3.29557 3.53971 3.64648 3.31641C4.00195 3.0931 4.42122 2.98145 4.9043 2.98145C5.60156 2.98145 6.15527 3.15918 6.56543 3.51465C6.97559 3.87012 7.18066 4.4056 7.18066 5.12109H6.18262C6.18262 4.66992 6.07324 4.34635 5.85449 4.15039C5.6403 3.95443 5.32357 3.85645 4.9043 3.85645C4.60352 3.85645 4.35059 3.93164 4.14551 4.08203C3.94043 4.23242 3.78548 4.44206 3.68066 4.71094C3.57585 4.97526 3.52344 5.27832 3.52344 5.62012V6.41309C3.52344 6.75944 3.57585 7.06706 3.68066 7.33594C3.78548 7.60026 3.94043 7.80762 4.14551 7.95801C4.35059 8.1084 4.60352 8.18359 4.9043 8.18359C5.32357 8.18359 5.6403 8.08561 5.85449 7.88965C6.06868 7.69368 6.17578 7.36784 6.17578 6.91211ZM0.932617 6.0166C0.932617 6.62272 1.03743 7.18783 1.24707 7.71191C1.45671 8.236 1.74837 8.69401 2.12207 9.08594C2.49577 9.47786 2.92871 9.7832 3.4209 10.002C3.91309 10.2207 4.43945 10.3301 5 10.3301C5.56055 10.3301 6.08464 10.2207 6.57227 10.002C7.06445 9.7832 7.49512 9.47786 7.86426 9.08594C8.23796 8.69401 8.52962 8.236 8.73926 7.71191C8.94889 7.18783 9.05371 6.62272 9.05371 6.0166C9.05371 5.40592 8.94889 4.84082 8.73926 4.32129C8.52962 3.80176 8.23796 3.34831 7.86426 2.96094C7.49512 2.56901 7.06445 2.26595 6.57227 2.05176C6.08464 1.83301 5.56055 1.72363 5 1.72363C4.43945 1.72363 3.91309 1.83301 3.4209 2.05176C2.92871 2.26595 2.49577 2.56901 2.12207 2.96094C1.74837 3.34831 1.45671 3.80176 1.24707 4.32129C1.03743 4.84082 0.932617 5.40592 0.932617 6.0166ZM0.146484 6.0166C0.146484 5.29199 0.27181 4.61979 0.522461 4C0.773112 3.38021 1.12174 2.84017 1.56836 2.37988C2.01497 1.91504 2.52995 1.55501 3.11328 1.2998C3.70117 1.04004 4.33008 0.910156 5 0.910156C5.66992 0.910156 6.29655 1.04004 6.87988 1.2998C7.46777 1.55501 7.98275 1.91504 8.4248 2.37988C8.87142 2.84017 9.22005 3.38021 9.4707 4C9.72135 4.61979 9.84668 5.29199 9.84668 6.0166C9.84668 6.74121 9.72135 7.41341 9.4707 8.0332C9.22005 8.65299 8.87142 9.19759 8.4248 9.66699C7.98275 10.1318 7.46777 10.4941 6.87988 10.7539C6.29655 11.0137 5.66992 11.1436 5 11.1436C4.33008 11.1436 3.70117 11.0137 3.11328 10.7539C2.52995 10.4941 2.01497 10.1318 1.56836 9.66699C1.12174 9.19759 0.773112 8.65299 0.522461 8.0332C0.27181 7.41341 0.146484 6.74121 0.146484 6.0166ZM21.3447 9.96094V11H14.8301V10.0908L18.0908 6.46094C18.4919 6.01432 18.8018 5.63607 19.0205 5.32617C19.2438 5.01172 19.3988 4.73145 19.4854 4.48535C19.5765 4.2347 19.6221 3.97949 19.6221 3.71973C19.6221 3.3916 19.5537 3.09538 19.417 2.83105C19.2848 2.56217 19.0889 2.34798 18.8291 2.18848C18.5693 2.02897 18.2549 1.94922 17.8857 1.94922C17.4437 1.94922 17.0745 2.03581 16.7783 2.20898C16.4867 2.3776 16.2679 2.61458 16.1221 2.91992C15.9762 3.22526 15.9033 3.57617 15.9033 3.97266H14.6387C14.6387 3.41211 14.7617 2.89941 15.0078 2.43457C15.2539 1.96973 15.6185 1.60059 16.1016 1.32715C16.5846 1.04915 17.1794 0.910156 17.8857 0.910156C18.5146 0.910156 19.0524 1.02181 19.499 1.24512C19.9456 1.46387 20.2874 1.77376 20.5244 2.1748C20.766 2.57129 20.8867 3.03613 20.8867 3.56934C20.8867 3.861 20.8366 4.15723 20.7363 4.45801C20.6406 4.75423 20.5062 5.05046 20.333 5.34668C20.1644 5.6429 19.9661 5.93457 19.7383 6.22168C19.515 6.50879 19.2757 6.79134 19.0205 7.06934L16.3545 9.96094H21.3447ZM28.9463 5.23047V6.74805C28.9463 7.5638 28.8734 8.25195 28.7275 8.8125C28.5817 9.37305 28.3721 9.82422 28.0986 10.166C27.8252 10.5078 27.4948 10.7562 27.1074 10.9111C26.7246 11.0615 26.2917 11.1367 25.8086 11.1367C25.4258 11.1367 25.0726 11.0889 24.749 10.9932C24.4255 10.8975 24.1338 10.7448 23.874 10.5352C23.6188 10.321 23.4001 10.043 23.2178 9.70117C23.0355 9.35938 22.8965 8.94466 22.8008 8.45703C22.7051 7.9694 22.6572 7.39974 22.6572 6.74805V5.23047C22.6572 4.41471 22.7301 3.73112 22.876 3.17969C23.0264 2.62826 23.2383 2.1862 23.5117 1.85352C23.7852 1.51628 24.1133 1.27474 24.4961 1.12891C24.8835 0.983073 25.3164 0.910156 25.7949 0.910156C26.1823 0.910156 26.5378 0.958008 26.8613 1.05371C27.1895 1.14486 27.4811 1.29297 27.7363 1.49805C27.9915 1.69857 28.208 1.96745 28.3857 2.30469C28.568 2.63737 28.707 3.04525 28.8027 3.52832C28.8984 4.01139 28.9463 4.57878 28.9463 5.23047ZM27.6748 6.95312V5.01855C27.6748 4.57194 27.6475 4.18001 27.5928 3.84277C27.5426 3.50098 27.4674 3.20931 27.3672 2.96777C27.2669 2.72624 27.1393 2.53027 26.9844 2.37988C26.834 2.22949 26.6585 2.12012 26.458 2.05176C26.262 1.97884 26.041 1.94238 25.7949 1.94238C25.4941 1.94238 25.2275 1.99935 24.9951 2.11328C24.7627 2.22266 24.5667 2.39811 24.4072 2.63965C24.2523 2.88118 24.1338 3.19792 24.0518 3.58984C23.9697 3.98177 23.9287 4.45801 23.9287 5.01855V6.95312C23.9287 7.39974 23.9538 7.79395 24.0039 8.13574C24.0586 8.47754 24.1383 8.77376 24.2432 9.02441C24.348 9.27051 24.4756 9.47331 24.626 9.63281C24.7764 9.79232 24.9495 9.91081 25.1455 9.98828C25.346 10.0612 25.5671 10.0977 25.8086 10.0977C26.1185 10.0977 26.3896 10.0384 26.6221 9.91992C26.8545 9.80143 27.0482 9.61686 27.2031 9.36621C27.3626 9.111 27.4811 8.78516 27.5586 8.38867C27.6361 7.98763 27.6748 7.50911 27.6748 6.95312ZM37.0947 9.96094V11H30.5801V10.0908L33.8408 6.46094C34.2419 6.01432 34.5518 5.63607 34.7705 5.32617C34.9938 5.01172 35.1488 4.73145 35.2354 4.48535C35.3265 4.2347 35.3721 3.97949 35.3721 3.71973C35.3721 3.3916 35.3037 3.09538 35.167 2.83105C35.0348 2.56217 34.8389 2.34798 34.5791 2.18848C34.3193 2.02897 34.0049 1.94922 33.6357 1.94922C33.1937 1.94922 32.8245 2.03581 32.5283 2.20898C32.2367 2.3776 32.0179 2.61458 31.8721 2.91992C31.7262 3.22526 31.6533 3.57617 31.6533 3.97266H30.3887C30.3887 3.41211 30.5117 2.89941 30.7578 2.43457C31.0039 1.96973 31.3685 1.60059 31.8516 1.32715C32.3346 1.04915 32.9294 0.910156 33.6357 0.910156C34.2646 0.910156 34.8024 1.02181 35.249 1.24512C35.6956 1.46387 36.0374 1.77376 36.2744 2.1748C36.516 2.57129 36.6367 3.03613 36.6367 3.56934C36.6367 3.861 36.5866 4.15723 36.4863 4.45801C36.3906 4.75423 36.2562 5.05046 36.083 5.34668C35.9144 5.6429 35.7161 5.93457 35.4883 6.22168C35.265 6.50879 35.0257 6.79134 34.7705 7.06934L32.1045 9.96094H37.0947ZM42.6045 0.992188V11H41.3398V2.57129L38.79 3.50098V2.35938L42.4062 0.992188H42.6045ZM56.625 5.32617V6.39941H51.2383V5.32617H56.625ZM51.4434 1.04688V11H50.124V1.04688H51.4434ZM57.7734 1.04688V11H56.4609V1.04688H57.7734ZM59.5918 7.38379V7.22656C59.5918 6.69336 59.6693 6.19889 59.8242 5.74316C59.9792 5.28288 60.2025 4.88411 60.4941 4.54688C60.7858 4.20508 61.139 3.94076 61.5537 3.75391C61.9684 3.5625 62.4333 3.4668 62.9482 3.4668C63.4678 3.4668 63.9349 3.5625 64.3496 3.75391C64.7689 3.94076 65.1243 4.20508 65.416 4.54688C65.7122 4.88411 65.9378 5.28288 66.0928 5.74316C66.2477 6.19889 66.3252 6.69336 66.3252 7.22656V7.38379C66.3252 7.91699 66.2477 8.41146 66.0928 8.86719C65.9378 9.32292 65.7122 9.72168 65.416 10.0635C65.1243 10.4007 64.7712 10.665 64.3564 10.8564C63.9463 11.0433 63.4814 11.1367 62.9619 11.1367C62.4424 11.1367 61.9753 11.0433 61.5605 10.8564C61.1458 10.665 60.7904 10.4007 60.4941 10.0635C60.2025 9.72168 59.9792 9.32292 59.8242 8.86719C59.6693 8.41146 59.5918 7.91699 59.5918 7.38379ZM60.8564 7.22656V7.38379C60.8564 7.75293 60.8997 8.10156 60.9863 8.42969C61.0729 8.75326 61.2028 9.04036 61.376 9.29102C61.5537 9.54167 61.7747 9.73991 62.0391 9.88574C62.3034 10.027 62.611 10.0977 62.9619 10.0977C63.3083 10.0977 63.6113 10.027 63.8711 9.88574C64.1354 9.73991 64.3542 9.54167 64.5273 9.29102C64.7005 9.04036 64.8304 8.75326 64.917 8.42969C65.0081 8.10156 65.0537 7.75293 65.0537 7.38379V7.22656C65.0537 6.86198 65.0081 6.5179 64.917 6.19434C64.8304 5.86621 64.6982 5.57682 64.5205 5.32617C64.3473 5.07096 64.1286 4.87044 63.8643 4.72461C63.6045 4.57878 63.2992 4.50586 62.9482 4.50586C62.6019 4.50586 62.2965 4.57878 62.0322 4.72461C61.7725 4.87044 61.5537 5.07096 61.376 5.32617C61.2028 5.57682 61.0729 5.86621 60.9863 6.19434C60.8997 6.5179 60.8564 6.86198 60.8564 7.22656ZM69.1689 5.07324V11H67.8975V3.60352H69.1006L69.1689 5.07324ZM68.9092 7.02148L68.3213 7.00098C68.3258 6.49512 68.3919 6.02799 68.5195 5.59961C68.6471 5.16667 68.8363 4.79069 69.0869 4.47168C69.3376 4.15267 69.6497 3.90658 70.0234 3.7334C70.3971 3.55566 70.8301 3.4668 71.3223 3.4668C71.6686 3.4668 71.9876 3.51693 72.2793 3.61719C72.571 3.71289 72.8239 3.86556 73.0381 4.0752C73.2523 4.28483 73.4186 4.55371 73.5371 4.88184C73.6556 5.20996 73.7148 5.60645 73.7148 6.07129V11H72.4502V6.13281C72.4502 5.74544 72.3841 5.43555 72.252 5.20312C72.1243 4.9707 71.9421 4.80208 71.7051 4.69727C71.4681 4.58789 71.1901 4.5332 70.8711 4.5332C70.4974 4.5332 70.1852 4.59928 69.9346 4.73145C69.6839 4.86361 69.4834 5.0459 69.333 5.27832C69.1826 5.51074 69.0732 5.77734 69.0049 6.07812C68.9411 6.37435 68.9092 6.6888 68.9092 7.02148ZM73.7012 6.32422L72.8535 6.58398C72.8581 6.17839 72.9242 5.78874 73.0518 5.41504C73.1839 5.04134 73.373 4.70866 73.6191 4.41699C73.8698 4.12533 74.1774 3.89518 74.542 3.72656C74.9066 3.55339 75.3236 3.4668 75.793 3.4668C76.1895 3.4668 76.5404 3.51921 76.8457 3.62402C77.1556 3.72884 77.4154 3.89062 77.625 4.10938C77.8392 4.32357 78.001 4.59928 78.1104 4.93652C78.2197 5.27376 78.2744 5.6748 78.2744 6.13965V11H77.0029V6.12598C77.0029 5.71126 76.9368 5.38997 76.8047 5.16211C76.6771 4.92969 76.4948 4.7679 76.2578 4.67676C76.0254 4.58105 75.7474 4.5332 75.4238 4.5332C75.1458 4.5332 74.8997 4.58105 74.6855 4.67676C74.4714 4.77246 74.2913 4.90462 74.1455 5.07324C73.9997 5.2373 73.888 5.42643 73.8105 5.64062C73.7376 5.85482 73.7012 6.08268 73.7012 6.32422ZM83.2578 11.1367C82.7428 11.1367 82.2757 11.0501 81.8564 10.877C81.4417 10.6992 81.084 10.4508 80.7832 10.1318C80.487 9.81283 80.2591 9.43457 80.0996 8.99707C79.9401 8.55957 79.8604 8.08105 79.8604 7.56152V7.27441C79.8604 6.67285 79.9492 6.13737 80.127 5.66797C80.3047 5.19401 80.5462 4.79297 80.8516 4.46484C81.1569 4.13672 81.5033 3.88835 81.8906 3.71973C82.278 3.55111 82.679 3.4668 83.0938 3.4668C83.6224 3.4668 84.0781 3.55794 84.4609 3.74023C84.8483 3.92253 85.165 4.17773 85.4111 4.50586C85.6572 4.82943 85.8395 5.21224 85.958 5.6543C86.0765 6.0918 86.1357 6.57031 86.1357 7.08984V7.65723H80.6123V6.625H84.8711V6.5293C84.8529 6.20117 84.7845 5.88216 84.666 5.57227C84.5521 5.26237 84.3698 5.00716 84.1191 4.80664C83.8685 4.60612 83.5267 4.50586 83.0938 4.50586C82.8066 4.50586 82.5423 4.56738 82.3008 4.69043C82.0592 4.80892 81.8519 4.98665 81.6787 5.22363C81.5055 5.46061 81.3711 5.75 81.2754 6.0918C81.1797 6.43359 81.1318 6.8278 81.1318 7.27441V7.56152C81.1318 7.91243 81.1797 8.24284 81.2754 8.55273C81.3757 8.85807 81.5192 9.12695 81.7061 9.35938C81.8975 9.5918 82.1276 9.77409 82.3965 9.90625C82.6699 10.0384 82.9798 10.1045 83.3262 10.1045C83.7728 10.1045 84.151 10.0133 84.4609 9.83105C84.7708 9.64876 85.042 9.40495 85.2744 9.09961L86.04 9.70801C85.8805 9.94954 85.6777 10.1797 85.4316 10.3984C85.1855 10.6172 84.8825 10.7949 84.5225 10.9316C84.167 11.0684 83.7454 11.1367 83.2578 11.1367ZM89.4854 9.6875L91.3857 3.60352H92.2197L92.0557 4.81348L90.1211 11H89.3076L89.4854 9.6875ZM88.207 3.60352L89.8271 9.75586L89.9434 11H89.0889L86.9424 3.60352H88.207ZM94.0381 9.70801L95.583 3.60352H96.8408L94.6943 11H93.8467L94.0381 9.70801ZM92.4043 3.60352L94.2637 9.58496L94.4756 11H93.6689L91.6797 4.7998L91.5156 3.60352H92.4043ZM97.8047 7.38379V7.22656C97.8047 6.69336 97.8822 6.19889 98.0371 5.74316C98.1921 5.28288 98.4154 4.88411 98.707 4.54688C98.9987 4.20508 99.3519 3.94076 99.7666 3.75391C100.181 3.5625 100.646 3.4668 101.161 3.4668C101.681 3.4668 102.148 3.5625 102.562 3.75391C102.982 3.94076 103.337 4.20508 103.629 4.54688C103.925 4.88411 104.151 5.28288 104.306 5.74316C104.461 6.19889 104.538 6.69336 104.538 7.22656V7.38379C104.538 7.91699 104.461 8.41146 104.306 8.86719C104.151 9.32292 103.925 9.72168 103.629 10.0635C103.337 10.4007 102.984 10.665 102.569 10.8564C102.159 11.0433 101.694 11.1367 101.175 11.1367C100.655 11.1367 100.188 11.0433 99.7734 10.8564C99.3587 10.665 99.0033 10.4007 98.707 10.0635C98.4154 9.72168 98.1921 9.32292 98.0371 8.86719C97.8822 8.41146 97.8047 7.91699 97.8047 7.38379ZM99.0693 7.22656V7.38379C99.0693 7.75293 99.1126 8.10156 99.1992 8.42969C99.2858 8.75326 99.4157 9.04036 99.5889 9.29102C99.7666 9.54167 99.9876 9.73991 100.252 9.88574C100.516 10.027 100.824 10.0977 101.175 10.0977C101.521 10.0977 101.824 10.027 102.084 9.88574C102.348 9.73991 102.567 9.54167 102.74 9.29102C102.913 9.04036 103.043 8.75326 103.13 8.42969C103.221 8.10156 103.267 7.75293 103.267 7.38379V7.22656C103.267 6.86198 103.221 6.5179 103.13 6.19434C103.043 5.86621 102.911 5.57682 102.733 5.32617C102.56 5.07096 102.341 4.87044 102.077 4.72461C101.817 4.57878 101.512 4.50586 101.161 4.50586C100.815 4.50586 100.509 4.57878 100.245 4.72461C99.9854 4.87044 99.7666 5.07096 99.5889 5.32617C99.4157 5.57682 99.2858 5.86621 99.1992 6.19434C99.1126 6.5179 99.0693 6.86198 99.0693 7.22656ZM107.389 4.76562V11H106.124V3.60352H107.354L107.389 4.76562ZM109.699 3.5625L109.692 4.73828C109.588 4.71549 109.487 4.70182 109.392 4.69727C109.3 4.68815 109.196 4.68359 109.077 4.68359C108.785 4.68359 108.528 4.72917 108.305 4.82031C108.081 4.91146 107.892 5.03906 107.737 5.20312C107.582 5.36719 107.459 5.56315 107.368 5.79102C107.282 6.01432 107.225 6.26042 107.197 6.5293L106.842 6.73438C106.842 6.28776 106.885 5.86849 106.972 5.47656C107.063 5.08464 107.202 4.73828 107.389 4.4375C107.576 4.13216 107.812 3.89518 108.1 3.72656C108.391 3.55339 108.738 3.4668 109.139 3.4668C109.23 3.4668 109.335 3.47819 109.453 3.50098C109.572 3.51921 109.654 3.53971 109.699 3.5625ZM112.14 0.5V11H110.868V0.5H112.14ZM116.658 3.60352L113.432 7.05566L111.627 8.92871L111.524 7.58203L112.816 6.03711L115.113 3.60352H116.658ZM115.503 11L112.864 7.47266L113.521 6.34473L116.993 11H115.503Z" fill="#959393"/>
</svg>
